<svg width="38" height="38" viewBox="0 0 38 38" fill="none" xmlns="http://www.w3.org/2000/svg">
<path d="M22.7525 29.4857C23.0331 30.0765 22.7837 30.7816 22.1944 31.0651C21.2533 31.5178 20.2603 31.8533 19.2375 32.0626H18.7625C8.50252 29.9844 7.44574 17.8126 8.31252 11.709C8.3526 11.378 8.52924 11.0782 8.79938 10.8837C9.07102 10.6907 9.41095 10.618 9.73752 10.6878C11.2753 10.9624 12.8577 10.8184 14.3199 10.2706C15.7821 9.7244 17.0705 8.7937 18.0502 7.57652C18.2788 7.28707 18.6305 7.11935 19.0002 7.12527C19.3742 7.12527 19.7261 7.30191 19.9502 7.60027C20.9328 8.81152 22.2228 9.73629 23.6849 10.2796C25.147 10.8229 26.7278 10.9639 28.2627 10.6878C28.5893 10.618 28.9292 10.6907 29.2009 10.8837C29.471 11.0782 29.6477 11.378 29.6877 11.709C30.0499 14.7564 29.9386 17.8411 29.3552 20.8526C29.2246 21.5087 28.5863 21.9332 27.9302 21.8026C27.2741 21.6719 26.8496 21.0337 26.9802 20.3776C27.4285 18.0308 27.568 15.6352 27.3959 13.2526C24.2698 13.4485 21.2106 12.2892 19.0001 10.0701C16.7662 12.2818 13.6934 13.4307 10.5569 13.2288C10.2719 16.8745 10.2125 27.7163 19.0001 29.6874C19.7498 29.5256 20.4786 29.2777 21.1733 28.9511C21.7567 28.6676 22.4602 28.9051 22.7526 29.4855L22.7525 29.4857ZM31.16 20.544L25.0565 26.6954L22.3252 23.0379C21.9318 22.5139 21.1867 22.407 20.6627 22.8004C20.1387 23.1938 20.0318 23.9389 20.4252 24.4629L23.9877 29.2129C24.194 29.489 24.5102 29.6627 24.8546 29.6879H24.9377C25.2554 29.6864 25.5582 29.5588 25.7808 29.3316L32.9058 22.2066C33.3675 21.7405 33.366 20.988 32.8999 20.5263C32.4338 20.0647 31.6812 20.0662 31.2196 20.5323L31.16 20.544Z" fill="black"/>
</svg>
